PathFileType	4	(X/Y/Z)	9_coords_data.trc
DataRate	CameraRate	NumFrames	NumMarkers	Units	OrigDataRate	OrigDataStartFrame	OrigNumFrames
30.0	30.0	4	21	m	30.0	10	59
Frame#	Time	THUMB_TIP	THUMB_IP	THUMB_MCP	THUMB_CMC	INDEX_TIP	INDEX_DIP	INDEX_PIP	INDEX_MCP	MIDDLE_TIP	MIDDLE_DIP	MIDDLE_PIP	MIDDLE_MCP	RING_TIP	RING_DIP	RING_PIP	RING_MCP	PINKY_TIP	PINKY_DIP	PINKY_PIP	PINKY_MCP	WRIST
X1	Y1	Z1	X2	Y2	Z2	X3	Y3	Z3	X4	Y4	Z4	X5	Y5	Z5	X6	Y6	Z6	X7	Y7	Z7	X8	Y8	Z8	X9	Y9	Z9	X10	Y10	Z10	X11	Y11	Z11	X12	Y12	Z12	X13	Y13	Z13	X14	Y14	Z14	X15	Y15	Z15	X16	Y16	Z16	X17	Y17	Z17	X18	Y18	Z18	X19	Y19	Z19	X20	Y20	Z20	X21	Y21	Z21
8	0.2999999999999987	0.543898613091022	-0.019114617007323198	-0.1318908170956874	0.5211126131994221	-0.021652623980935037	-0.13342598143278842	0.49459807992054705	-0.018222609247222188	-0.11748752090706827	0.4754926421318255	-0.01982944339461523	-0.07720985549652015	0.550876360764325	0.060951466253194364	-0.16967573268883077	0.541300585197136	0.05168832301951487	-0.15740794153805057	0.5268986175920517	0.04174025897695588	-0.1393627431765126	0.5039026946112058	0.02557711516264438	-0.1073693625752555	0.5248539559318138	-0.020682644171651332	-0.11625961782839975	0.5378417874173059	-0.009669171468530302	-0.12242562563913667	0.5473475115717189	0.01776694605144391	-0.11991361175972115	0.5160450119061217	0.025802500018486496	-0.08906346900270878	0.5341215641467021	-0.01750484337587843	-0.10698294416166207	0.5491925547637837	-0.007612189825398685	-0.10695749715754502	0.5596877448317856	0.012738676294965945	-0.09716601041714065	0.5275550566205703	0.018219564972511648	-0.07324591339339975	0.6032235589241483	0.014993069291043382	-0.0699878218627683	0.5873055215050558	0.011124209196931134	-0.06502314601266929	0.5670608292023758	0.007610638731321728	-0.0607081402012008	0.5318323643972303	-6.844344496226284e-05	-0.06164110075904783	0.4622830810018609	-0.023011742144276925	-0.051989820119430985
9	0.33333333333333187	0.5438625337730383	-0.019112323511442986	-0.13191880633983358	0.5210761095836479	-0.021644220097563283	-0.13345775804094645	0.49456611273760953	-0.01824596833060943	-0.11750495414472081	0.47547897371967257	-0.01983728660216666	-0.07721799806376878	0.550846573942635	0.06089456331545595	-0.1697387458013837	0.5412677627432418	0.0516492098266198	-0.15745990974608742	0.5268624732798534	0.04172528925646135	-0.13940407221377735	0.50388542053592	0.02555765399944976	-0.10739940518850216	0.5248523060645219	-0.02079627527557104	-0.11627556114908894	0.5377472902010307	-0.009671112273690219	-0.1224359290196606	0.5473219071294372	0.017744524716815646	-0.11996224571756245	0.5160370871519402	0.025786603291704235	-0.08909587352757353	0.5340902468364	-0.017501627517303886	-0.1069802016891721	0.5491434272714597	-0.007581894370541797	-0.10695464613068964	0.5596761323580258	0.01277725794442075	-0.09722083805904669	0.5275528442051369	0.018207272859140144	-0.0732765249498259	0.6032232180284177	0.014927565232985107	-0.07009788061506061	0.5873042757579292	0.011081472542453397	-0.06511843807550965	0.5670556933054287	0.007611970935683554	-0.06078606156083449	0.5318221915382301	-4.9783803746539235e-05	-0.06166998380494709	0.4622830810018609	-0.023011742144276925	-0.051989820119430985
10	0.3666666666666651	0.5437925413756011	-0.01918865338033382	-0.13196004538268213	0.5210061156322107	-0.02172469995720716	-0.13349212553753276	0.4944915606570679	-0.018336218019130546	-0.11754481966395466	0.47546332870440766	-0.0198414814984752	-0.07722670251280894	0.5508330470468759	0.06081243883107679	-0.16980702400227848	0.541251931036755	0.051580653907218665	-0.15751978008347267	0.5268464988807151	0.041669366842939426	-0.13945711842669622	0.5038751608347447	0.02552257927949697	-0.10743782777623342	0.5247668576845645	-0.02082576770002087	-0.11629587883276687	0.5376720317832409	-0.009702545759449177	-0.12243838769671178	0.5473247590670586	0.017690496120380095	-0.12001854006635004	0.5160359645204762	0.025740364319849496	-0.08915822770900464	0.5340530079611235	-0.01754045360868517	-0.10698536907010472	0.5491078405192402	-0.0076232006910365024	-0.1069748232433135	0.559668160704298	0.012747255935602664	-0.09729473474106948	0.5275537522552816	0.018174130893936047	-0.07333780187902811	0.6032335340798477	0.014831424848258723	-0.07019920544796215	0.5873125248619122	0.011008758060689683	-0.06520834539045417	0.5670616516669345	0.007577551644278757	-0.06085622218804898	0.5318254340056874	-7.541720519255168e-05	-0.06170738828126676	0.4622830810018609	-0.023011742144276925	-0.051989820119430985
11	0.39999999999999825	0.5438233814244408	-0.019255008764412218	-0.13190976893924633	0.5210345756555106	-0.021775574397728037	-0.13343196489053707	0.4944838181259784	-0.018349386969395254	-0.11755309483269222	0.47547544189966023	-0.019896167577367563	-0.07722718377057802	0.5508567675206121	0.06070305802181375	-0.169869298520767	0.5412746680226217	0.05148088698709041	-0.15757560377032998	0.5268636043563869	0.04157840239736077	-0.13951260634581886	0.503918980329639	0.02545946173582636	-0.10746014818390692	0.524703349692608	-0.020942428315180783	-0.11633376834026302	0.5376276227244576	-0.009821823940769914	-0.12244075818355232	0.5473379603485724	0.017555827882479114	-0.12007790527432283	0.5160820347464395	0.02565896329726236	-0.08919823182715647	0.5340843000450354	-0.017625202502654314	-0.10700544025461614	0.5491269356530251	-0.007689537769300592	-0.10704643137111647	0.5597001913344168	0.012674400878405212	-0.09736674924573696	0.5276102494465634	0.018067956088337778	-0.07336954053656408	0.6032539566207923	0.014709146622475022	-0.07029371943202961	0.5873372475553107	0.010875734196381992	-0.06529738860868656	0.5670860953687844	0.007471388923077971	-0.06092551402467944	0.5318443075398518	-0.00015720182179068676	-0.061764826164348696	0.4622830810018609	-0.023011742144276925	-0.051989820119430985
